#!OML:ASF \\sashay\E\basketball\basketball\Project 1\Capture day 1\Session 1\Subject.ASF
:FULLY-SPECIFIED
:DEGREES
350
root -1.92428 15.3551 4.82513 184.05 -14.5098 -173.594
lowerback 32.4873 1.88721 1.17553
upperback 10.1002 0.429691 3.73959
thorax -6.22692 -0.933184 3.49649
lowerneck -8.2806 -5.36137 -13.4661
upperneck -14.4092 -6.46381 27.2002
head -1.09494 -4.35627 10.9152
rclavicle -1.33543e-014 2.38596e-014
rhumerus 0.38033 10.489 -100.636
rradius 51.5202
rwrist -15.2612
rhand -9.53856 32.0887
rfingers 7.12502
rthumb 16.428 2.76429
lclavicle -1.33543e-014 2.38596e-014
lhumerus -3.56994 -1.32755 100.572
lradius 55.8505
lwrist 37.1207
lhand -10.1909 27.1869
lfingers 7.12502
lthumb 15.7998 56.5621
rfemur -35.9153 -3.18429 9.55432
rtibia 73.9096
rfoot -2.45386 -16.3989
rtoes -17.0596
lfemur -40.8774 27.8765 -30.8447
ltibia 58.5993
lfoot -7.23213 -9.35782
ltoes 19.5601
351
root -1.94013 15.3699 4.93267 184.319 -12.0308 -173.701
lowerback 32.4052 2.00637 1.05833
upperback 10.0324 0.505908 3.77102
thorax -6.27455 -0.915105 3.57502
lowerneck -8.4537 -4.75672 -11.6045
upperneck -14.3612 -5.82329 25.0632
head -1.39899 -4.03552 9.84628
rclavicle -1.63749e-014 -6.57232e-015
rhumerus 0.184771 9.91498 -100.183
rradius 50.2621
rwrist -15.0666
rhand -9.11039 31.9848
rfingers 7.12502
rthumb 16.8402 2.69499
lclavicle -1.63749e-014 -6.57232e-015
lhumerus -3.67729 -1.73371 100.807
lradius 54.4724
lwrist 37.5225
lhand -10.1842 27.7489
lfingers 7.12502
lthumb 15.8063 57.1236
rfemur -34.1712 -3.23996 7.85734
rtibia 72.8892
rfoot -5.03101 -15.8189
rtoes 4.05911
lfemur -41.0037 27.4997 -30.7046
ltibia 58.0279
lfoot -7.35436 -8.90762
ltoes 15.6863
352
root -1.96013 15.4084 5.03401 184.349 -9.66496 -173.589
lowerback 32.488 2.12082 1.21299
upperback 10.0076 0.637169 3.82019
thorax -6.34322 -0.881205 3.49906
lowerneck -8.78446 -4.25045 -11.2702
upperneck -13.7984 -5.20143 23.8324
head -1.385 -3.62494 9.36516
rclavicle 6.23687e-015 3.23025e-016
rhumerus -0.188164 9.43606 -99.4546
rradius 49.3452
rwrist -15.3819
rhand -8.80264 31.6564
rfingers 7.12502
rthumb 17.1364 2.3921
lclavicle 6.23687e-015 3.23025e-016
lhumerus -3.81235 -2.3387 101.171
lradius 52.9098
lwrist 37.5382
lhand -10.2916 27.9798
lfingers 7.12502
lthumb 15.7029 57.3626
rfemur -32.8111 -3.93972 7.16391
rtibia 71.8401
rfoot 0.272917 -16.3035
rtoes -19.2591
lfemur -40.8504 27.0413 -30.1486
ltibia 57.5177
lfoot -7.39164 -8.4458
ltoes 10.9413
353
root -1.95807 15.421 5.12687 184.489 -7.14488 -173.311
lowerback 32.3221 2.10993 1.03699
upperback 10.0246 0.487327 3.63109
thorax -6.24426 -0.976009 3.4394
lowerneck -9.09732 -3.31432 -10.0075
upperneck -13.073 -4.14743 22.5193
head -1.41787 -3.06536 8.71033
rclavicle 8.44835e-015 2.5345e-014
rhumerus -0.665873 9.85266 -99.3867
rradius 48.5141
rwrist -15.9612
rhand -8.74025 31.0252
rfingers 7.12502
rthumb 17.1965 1.76612
lclavicle 8.44835e-015 2.5345e-014
lhumerus -3.80063 -2.15602 100.82
lradius 51.2841
lwrist 37.3381
lhand -10.181 28.2232
lfingers 7.12502
lthumb 15.8093 57.5977
rfemur -31.5538 -4.11156 6.55011
rtibia 70.5897
rfoot 2.24285 -15.9332
rtoes -24.7155
lfemur -41.0615 27.1209 -29.441
ltibia 57.2694
lfoot -7.14654 -8.23655
ltoes 10.9602
354
root -1.94952 15.4296 5.21477 184.758 -4.61315 -173.064
lowerback 32.1049 2.28017 1.08466
upperback 10.0267 0.655033 3.56019
thorax -6.1504 -0.917227 3.26774
lowerneck -9.51038 -2.83953 -10.5663
upperneck -12.3288 -3.49618 22.205
head -1.24735 -2.62926 8.70667
rclavicle -8.15017e-015 -3.55825e-014
rhumerus -0.519038 6.93108 -100.019
rradius 46.8631
rwrist -13.8182
rhand -7.99721 31.2991
rfingers 7.12502
rthumb 17.9115 2.10388
lclavicle -8.15017e-015 -3.55825e-014
lhumerus -3.62472 -2.42503 101.008
lradius 49.48
lwrist 37.23
lhand -9.78794 28.5211
lfingers 7.12502
lthumb 16.1879 57.8652
rfemur -30.3384 -3.36307 5.97849
rtibia 69.1668
rfoot 3.05229 -16.128
rtoes -25.6773
lfemur -41.4321 27.3555 -28.7964
ltibia 57.1594
lfoot -7.01492 -8.11558
ltoes 10.6896
355
root -1.94244 15.4322 5.30055 184.896 -2.3701 -172.908
lowerback 32.1309 2.31674 1.09704
upperback 10.0206 0.632936 3.53586
thorax -6.16708 -0.956613 3.24493
lowerneck -9.90768 -4.64009 -10.68
upperneck -10.6908 -2.39452 22.1752
head -0.815273 -0.215045 8.68364
rclavicle -1.98785e-016 1.18277e-014
rhumerus -0.933912 6.62137 -99.6549
rradius 45.9823
rwrist -14.0932
rhand -8.23654 31.1352
rfingers 7.12502
rthumb 17.6812 1.9191
lclavicle -1.98785e-016 1.18277e-014
lhumerus -3.54295 -2.88443 101.111
lradius 47.8821
lwrist 37.3661
lhand -9.52616 28.6322
lfingers 7.12502
lthumb 16.4399 57.9556
rfemur -28.9226 -3.3394 5.34653
rtibia 67.6032
rfoot 3.83131 -15.7496
rtoes -27.8781
lfemur -41.6561 27.2205 -28.1421
ltibia 57.2342
lfoot -7.08568 -7.73762
ltoes 10.8111
356
root -1.93412 15.4272 5.38187 185.03 -0.267185 -172.759
lowerback 32.1545 -1.06005 -1.01389
upperback 10.1988 1.55556 3.06181
thorax -6.05715 1.89048 3.34421
lowerneck -9.61254 -3.89354 -9.39973
upperneck -10.9301 -1.62604 20.2702
head -1.15431 0.0602248 7.84176
rclavicle 1.19271e-014 3.79679e-014
rhumerus -1.36882 6.28022 -99.4094
rradius 45.0813
rwrist -14.5751
rhand -7.86192 30.3652
rfingers 7.12502
rthumb 18.0417 1.18203
lclavicle 1.19271e-014 3.79679e-014
lhumerus -3.60053 -3.3394 101.276
lradius 46.467
lwrist 37.4785
lhand -9.5265 28.774
lfingers 7.12502
lthumb 16.4396 58.0974
rfemur -27.5648 -3.65085 4.83551
rtibia 65.9804
rfoot 4.79964 -15.0646
rtoes -31.1962
lfemur -41.8909 26.9037 -27.4412
ltibia 57.4235
lfoot -7.12069 -7.29031
ltoes 10.5388
357
root -1.91578 15.4149 5.46217 185.328 1.91072 -172.583
lowerback 31.9974 -1.01052 -1.19249
upperback 10.1853 1.47581 3.0982
thorax -5.99741 1.81388 3.52317
lowerneck -10.2699 -3.34655 -9.49393
upperneck -10.0872 -1.11382 19.3449
head -0.912576 0.320044 7.55791
rclavicle 1.11319e-014 1.11319e-014
rhumerus -1.6151 5.76759 -99.2893
rradius 44.064
rwrist -15.0698
rhand -7.1947 29.6951
rfingers 7.12502
rthumb 18.6836 0.572384
lclavicle 1.11319e-014 1.11319e-014
lhumerus -3.46896 -3.52476 101.454
lradius 44.9724
lwrist 37.2594
lhand -9.39405 29.0553
lfingers 7.12502
lthumb 16.5671 58.3681
rfemur -26.5095 -3.5144 4.55116
rtibia 64.4071
rfoot 5.4521 -14.703
rtoes -32.7545
lfemur -42.3509 26.6976 -26.7367
ltibia 57.6921
lfoot -7.07983 -6.8917
ltoes 7.63076
358
root -1.89383 15.3953 5.54541 185.612 4.07609 -172.589
lowerback 31.861 -0.941668 -1.54239
upperback 10.2437 1.37955 3.01617
thorax -5.85988 1.73575 3.67433
lowerneck -10.7594 -2.63262 -9.68641
upperneck -9.53353 -0.230741 18.8101
head -0.818601 0.773769 7.44142
rclavicle 3.77691e-015 -1.37161e-014
rhumerus -1.73319 5.14919 -99.1154
rradius 43.0413
rwrist -14.8965
rhand -6.72756 29.4487
rfingers 7.12502
rthumb 19.1328 0.369836
lclavicle 3.77691e-015 -1.37161e-014
lhumerus -3.10336 -3.69169 101.526
lradius 43.4775
lwrist 36.7861
lhand -8.36291 29.6705
lfingers 7.12502
lthumb 17.5596 58.8975
rfemur -25.4297 -2.86697 4.16043
rtibia 62.8299
rfoot 5.08358 -15.1236
rtoes -30.1685
lfemur -42.8422 26.5178 -26.2172
ltibia 58.0569
lfoot -7.18797 -6.35669
ltoes 3.14853
359
root -1.881 15.3848 5.62234 185.83 6.00766 -172.796
lowerback 31.7868 -0.996938 -1.81556
upperback 10.2861 1.14687 2.83168
thorax -5.75498 1.59667 3.71246
lowerneck -10.8093 -1.84746 -9.74019
upperneck -9.47499 0.800598 18.1836
head -0.958622 1.27312 7.27441
rclavicle -1.33186e-014 -3.37934e-014
rhumerus -1.87073 4.38081 -98.9448
rradius 42.0358
rwrist -14.244
rhand -7.34665 29.3074
rfingers 7.12502
rthumb 18.5374 0.170631
lclavicle -1.33186e-014 -3.37934e-014
lhumerus -2.73 -3.95402 101.599
lradius 42.0265
lwrist 36.3232
lhand -7.07906 30.2853
lfingers 7.12502
lthumb 18.7948 59.3973
rfemur -24.3858 -3.33879 3.80021
rtibia 61.3409
rfoot 6.85787 -14.2617
rtoes -36.523
lfemur -43.1844 25.9539 -25.8307
ltibia 58.4551
lfoot -7.47213 -5.66336
ltoes 1.48042
360
root -1.85525 15.3539 5.69097 186.162 7.76251 -172.659
lowerback 31.5468 -1.15109 -1.75391
upperback 10.3183 0.898177 2.76721
thorax -5.58987 1.44984 3.69575
lowerneck -11.2293 -1.24455 -9.4882
upperneck -8.94561 1.44282 17.2603
head -0.846098 1.57737 6.94446
rclavicle -2.42517e-014 -1.59028e-015
rhumerus -2.04662 3.51873 -98.8247
rradius 41.0593
rwrist -13.7158
rhand -8.94233 29.4705
rfingers 7.12502
rthumb 17.002 0.194614
lclavicle -2.42517e-014 -1.59028e-015
lhumerus -2.38728 -4.28666 101.719
lradius 40.5796
lwrist 35.89
lhand -7.02542 30.5116
lfingers 7.12502
lthumb 18.8464 59.6186
rfemur -23.4419 -4.9274 3.63028
rtibia 59.8648
rfoot 7.01701 -13.0458
rtoes -36.8438
lfemur -43.7144 25.3114 -25.0077
ltibia 59.0217
lfoot -7.72797 -5.14157
ltoes 2.4084
361
root -1.81907 15.3179 5.76033 186.581 9.46732 -172.036
lowerback 31.3361 -1.3472 -1.182
upperback 10.3542 0.760532 2.70299
thorax -5.44873 1.36796 3.34136
lowerneck -11.9023 -0.844603 -9.94243
upperneck -8.45972 1.96285 16.8556
head -0.678496 1.86284 6.9136
rclavicle 1.78906e-014 -8.34896e-015
rhumerus -2.26676 2.42972 -98.8619
rradius 40.3116
rwrist -13.4821
rhand -7.17817 29.1967
rfingers 7.12502
rthumb 18.6995 0.0754643
lclavicle 1.78906e-014 -8.34896e-015
lhumerus -1.96548 -4.77992 101.708
lradius 38.9553
lwrist 35.2983
lhand -6.95689 30.4075
lfingers 7.12502
lthumb 18.9123 59.508
rfemur -22.5072 -5.00759 4.36999
rtibia 58.4286
rfoot 8.0318 -12.6638
rtoes -38.8685
lfemur -44.357 25.1633 -23.718
ltibia 59.6431
lfoot -7.86796 -5.04279
ltoes 3.33024
362
root -1.78102 15.2777 5.838 187.006 11.1471 -171.52
lowerback 31.282 -1.53527 -0.683138
upperback 10.3776 0.610582 2.56521
thorax -5.39197 1.28428 2.95102
lowerneck -12.1545 -0.304291 -9.56821
upperneck -8.29955 2.61856 16.2678
head -0.684877 2.17932 6.67605
rclavicle 4.37326e-014 -1.15295e-014
rhumerus -2.54179 1.59684 -98.8848
rradius 39.8229
rwrist -13.6394
rhand -6.79939 28.9182
rfingers 7.12502
rthumb 19.0637 -0.167501
lclavicle 4.37326e-014 -1.15295e-014
lhumerus -1.43482 -5.20143 101.649
lradius 37.3509
lwrist 34.7888
lhand -6.17274 30.2599
lfingers 7.12502
lthumb 19.6663 59.2851
rfemur -21.6351 -5.30971 5.15049
rtibia 56.9744
rfoot 9.83904 -11.1334
rtoes -43.3022
lfemur -45.0007 25.1363 -22.6194
ltibia 60.2923
lfoot -8.21899 -4.86759
ltoes 2.3074
363
root -1.74632 15.2364 5.91672 187.427 12.8977 -171.246
lowerback 31.2784 -1.63179 -0.522222
upperback 10.3797 0.474778 2.46468
thorax -5.38144 1.20079 2.79408
lowerneck -12.0632 0.320131 -8.91532
upperneck -8.71787 3.37563 15.0545
head -0.917684 2.5152 6.18377
rclavicle 1.66979e-014 4.45278e-014
rhumerus -2.86585 0.935534 -98.7405
rradius 39.3843
rwrist -13.8008
rhand -6.76967 28.8897
rfingers 7.12502
rthumb 19.0923 -0.193164
lclavicle 1.66979e-014 4.45278e-014
lhumerus -0.969785 -5.46427 101.747
lradius 36.0465
lwrist 34.4392
lhand -5.85719 30.5313
lfingers 7.12502
lthumb 19.9696 59.5252
rfemur -20.7912 -5.58447 5.66094
rtibia 55.4931
rfoot 10.8086 -9.70698
rtoes -44.9916
lfemur -45.5229 25.075 -21.8109
ltibia 60.8303
lfoot -8.8616 -4.43854
ltoes -1.21907
